<mxfile host="964ab737-e3e0-41b3-b987-dd3833c93e47" modified="2020-08-15T10:59:46.027Z" agent="5.0 (Macintosh; Intel Mac OS X 10_15_6) AppleWebKit/537.36 (KHTML, like Gecko) Code/1.47.3 Chrome/78.0.3904.130 Electron/7.3.2 Safari/537.36" etag="jc9XN8l4pfjz7C9P2zWQ" version="13.1.3">
    <diagram id="6hGFLwfOUW9BJ-s0fimq" name="Page-1">
        <mxGraphModel dx="792" dy="571" grid="1" gridSize="10" guides="1" tooltips="1" connect="1" arrows="1" fold="1" page="1" pageScale="1" pageWidth="827" pageHeight="1169" math="0" shadow="0">
            <root>
                <mxCell id="0"/>
                <mxCell id="1" parent="0"/>
                <mxCell id="36" value="" style="group" vertex="1" connectable="0" parent="1">
                    <mxGeometry x="30" y="60" width="710" height="370" as="geometry"/>
                </mxCell>
                <mxCell id="34" value="" style="group" vertex="1" connectable="0" parent="36">
                    <mxGeometry y="70" width="710" height="300" as="geometry"/>
                </mxCell>
                <mxCell id="23" value="Service" style="shape=umlLifeline;perimeter=lifelinePerimeter;whiteSpace=wrap;html=1;container=1;collapsible=0;recursiveResize=0;outlineConnect=0;" vertex="1" parent="34">
                    <mxGeometry x="610" width="100" height="300" as="geometry"/>
                </mxCell>
                <mxCell id="24" value="" style="html=1;points=[];perimeter=orthogonalPerimeter;" vertex="1" parent="23">
                    <mxGeometry x="45" y="160" width="10" height="80" as="geometry"/>
                </mxCell>
                <mxCell id="171" value="" style="group" vertex="1" connectable="0" parent="34">
                    <mxGeometry width="540" height="300" as="geometry"/>
                </mxCell>
                <mxCell id="2" value="Client" style="shape=umlLifeline;perimeter=lifelinePerimeter;whiteSpace=wrap;html=1;container=1;collapsible=0;recursiveResize=0;outlineConnect=0;" vertex="1" parent="171">
                    <mxGeometry width="100" height="300" as="geometry"/>
                </mxCell>
                <mxCell id="7" value="" style="html=1;points=[];perimeter=orthogonalPerimeter;" vertex="1" parent="2">
                    <mxGeometry x="45" y="70" width="10" height="170" as="geometry"/>
                </mxCell>
                <mxCell id="10" value="Proxy" style="shape=umlLifeline;perimeter=lifelinePerimeter;whiteSpace=wrap;html=1;container=1;collapsible=0;recursiveResize=0;outlineConnect=0;" vertex="1" parent="171">
                    <mxGeometry x="140" width="100" height="300" as="geometry"/>
                </mxCell>
                <mxCell id="12" value="" style="html=1;points=[];perimeter=orthogonalPerimeter;" vertex="1" parent="10">
                    <mxGeometry x="45" y="70" width="10" height="180" as="geometry"/>
                </mxCell>
                <mxCell id="15" value="Binder" style="shape=umlLifeline;perimeter=lifelinePerimeter;whiteSpace=wrap;html=1;container=1;collapsible=0;recursiveResize=0;outlineConnect=0;" vertex="1" parent="171">
                    <mxGeometry x="290" width="100" height="300" as="geometry"/>
                </mxCell>
                <mxCell id="16" value="" style="html=1;points=[];perimeter=orthogonalPerimeter;" vertex="1" parent="15">
                    <mxGeometry x="45" y="100" width="10" height="150" as="geometry"/>
                </mxCell>
                <mxCell id="19" value="Stub" style="shape=umlLifeline;perimeter=lifelinePerimeter;whiteSpace=wrap;html=1;container=1;collapsible=0;recursiveResize=0;outlineConnect=0;" vertex="1" parent="171">
                    <mxGeometry x="440" width="100" height="300" as="geometry"/>
                </mxCell>
                <mxCell id="20" value="" style="html=1;points=[];perimeter=orthogonalPerimeter;" vertex="1" parent="19">
                    <mxGeometry x="45" y="130" width="10" height="110" as="geometry"/>
                </mxCell>
                <mxCell id="13" value="IZcwAidl.addPerson()" style="html=1;verticalAlign=bottom;endArrow=block;entryX=0;entryY=0;" edge="1" target="12" parent="171" source="2">
                    <mxGeometry relative="1" as="geometry">
                        <mxPoint x="110" y="100" as="sourcePoint"/>
                    </mxGeometry>
                </mxCell>
                <mxCell id="14" value="return" style="html=1;verticalAlign=bottom;endArrow=open;dashed=1;endSize=8;exitX=0;exitY=0.95;" edge="1" source="12" parent="171" target="7">
                    <mxGeometry relative="1" as="geometry">
                        <mxPoint x="110" y="176" as="targetPoint"/>
                    </mxGeometry>
                </mxCell>
                <mxCell id="17" value="mRemote.transaction()" style="html=1;verticalAlign=bottom;endArrow=block;entryX=0;entryY=0;" edge="1" parent="171" target="16" source="10">
                    <mxGeometry relative="1" as="geometry">
                        <mxPoint x="260" y="100" as="sourcePoint"/>
                    </mxGeometry>
                </mxCell>
                <mxCell id="18" value="return" style="html=1;verticalAlign=bottom;endArrow=open;dashed=1;endSize=8;exitX=0;exitY=0.95;" edge="1" parent="171" source="16" target="10">
                    <mxGeometry relative="1" as="geometry">
                        <mxPoint x="260" y="176" as="targetPoint"/>
                    </mxGeometry>
                </mxCell>
                <mxCell id="22" value="return" style="html=1;verticalAlign=bottom;endArrow=open;dashed=1;endSize=8;" edge="1" parent="171" source="19" target="15">
                    <mxGeometry relative="1" as="geometry">
                        <mxPoint x="410" y="176" as="targetPoint"/>
                        <Array as="points">
                            <mxPoint x="380" y="240"/>
                        </Array>
                    </mxGeometry>
                </mxCell>
                <mxCell id="26" value="return" style="html=1;verticalAlign=bottom;endArrow=open;dashed=1;endSize=8;exitX=0;exitY=0.95;" edge="1" parent="171" source="24" target="19">
                    <mxGeometry relative="1" as="geometry">
                        <mxPoint x="580" y="196" as="targetPoint"/>
                    </mxGeometry>
                </mxCell>
                <mxCell id="21" value="onTransaction()" style="html=1;verticalAlign=bottom;endArrow=block;entryX=0;entryY=0;" edge="1" parent="171" target="20" source="15">
                    <mxGeometry relative="1" as="geometry">
                        <mxPoint x="410" y="100" as="sourcePoint"/>
                    </mxGeometry>
                </mxCell>
                <mxCell id="25" value="this.addPerson()" style="html=1;verticalAlign=bottom;endArrow=block;entryX=0;entryY=0;exitX=1.201;exitY=0.296;exitDx=0;exitDy=0;exitPerimeter=0;" edge="1" parent="171" target="24" source="20">
                    <mxGeometry relative="1" as="geometry">
                        <mxPoint x="580" y="100" as="sourcePoint"/>
                    </mxGeometry>
                </mxCell>
                <mxCell id="35" value="AIDL" style="text;html=1;align=center;verticalAlign=middle;resizable=0;points=[];autosize=1;" vertex="1" parent="36">
                    <mxGeometry x="10" width="40" height="20" as="geometry"/>
                </mxCell>
                <mxCell id="90" value="" style="group" vertex="1" connectable="0" parent="1">
                    <mxGeometry x="40" y="750" width="720" height="672" as="geometry"/>
                </mxCell>
                <mxCell id="55" value="" style="rounded=0;whiteSpace=wrap;html=1;" vertex="1" parent="90">
                    <mxGeometry width="720" height="570" as="geometry"/>
                </mxCell>
                <mxCell id="57" value="" style="rounded=0;whiteSpace=wrap;html=1;fillColor=#d5e8d4;strokeColor=#82b366;" vertex="1" parent="90">
                    <mxGeometry x="30" y="40" width="250" height="290" as="geometry"/>
                </mxCell>
                <mxCell id="58" value="binderService()" style="rounded=0;whiteSpace=wrap;html=1;fillColor=#0050ef;strokeColor=#001DBC;fontColor=#ffffff;" vertex="1" parent="90">
                    <mxGeometry x="50" y="90" width="120" height="40" as="geometry"/>
                </mxCell>
                <mxCell id="59" value="&lt;font color=&quot;#ff0000&quot;&gt;Activity&lt;/font&gt;" style="text;html=1;align=center;verticalAlign=middle;resizable=0;points=[];autosize=1;" vertex="1" parent="90">
                    <mxGeometry x="60" y="50" width="50" height="20" as="geometry"/>
                </mxCell>
                <mxCell id="60" value="onServiceConnectd" style="rounded=0;whiteSpace=wrap;html=1;fillColor=#0050ef;strokeColor=#001DBC;fontColor=#ffffff;" vertex="1" parent="90">
                    <mxGeometry x="60" y="165" width="120" height="40" as="geometry"/>
                </mxCell>
                <mxCell id="61" value="mRemoteService" style="rounded=0;whiteSpace=wrap;html=1;fillColor=#0050ef;strokeColor=#001DBC;fontColor=#ffffff;" vertex="1" parent="90">
                    <mxGeometry x="50" y="250" width="120" height="40" as="geometry"/>
                </mxCell>
                <mxCell id="64" value="" style="endArrow=none;html=1;exitX=0.5;exitY=1;exitDx=0;exitDy=0;entryX=0.5;entryY=0;entryDx=0;entryDy=0;strokeWidth=2;strokeColor=#336600;" edge="1" parent="90" source="55" target="55">
                    <mxGeometry width="50" height="50" relative="1" as="geometry">
                        <mxPoint x="350" y="310" as="sourcePoint"/>
                        <mxPoint x="400" y="260" as="targetPoint"/>
                    </mxGeometry>
                </mxCell>
                <mxCell id="71" value="AMS&lt;br&gt;Binder Driver" style="edgeLabel;html=1;align=center;verticalAlign=middle;resizable=0;points=[];" vertex="1" connectable="0" parent="64">
                    <mxGeometry x="0.2105" y="4" relative="1" as="geometry">
                        <mxPoint as="offset"/>
                    </mxGeometry>
                </mxCell>
                <mxCell id="65" value="" style="rounded=0;whiteSpace=wrap;html=1;fillColor=#d5e8d4;strokeColor=#82b366;" vertex="1" parent="90">
                    <mxGeometry x="410" y="40" width="250" height="290" as="geometry"/>
                </mxCell>
                <mxCell id="66" value="&lt;font color=&quot;#ff0000&quot;&gt;RemoteService&lt;br&gt;&lt;/font&gt;" style="text;html=1;align=center;verticalAlign=middle;resizable=0;points=[];autosize=1;" vertex="1" parent="90">
                    <mxGeometry x="430" y="50" width="100" height="20" as="geometry"/>
                </mxCell>
                <mxCell id="67" value="Service" style="text;html=1;align=center;verticalAlign=middle;resizable=0;points=[];autosize=1;" vertex="1" parent="90">
                    <mxGeometry x="505" y="20" width="60" height="20" as="geometry"/>
                </mxCell>
                <mxCell id="68" value="Client" style="text;html=1;align=center;verticalAlign=middle;resizable=0;points=[];autosize=1;" vertex="1" parent="90">
                    <mxGeometry x="130" y="20" width="50" height="20" as="geometry"/>
                </mxCell>
                <mxCell id="69" value="onBind" style="rounded=0;whiteSpace=wrap;html=1;fillColor=#0050ef;strokeColor=#001DBC;fontColor=#ffffff;" vertex="1" parent="90">
                    <mxGeometry x="445" y="90" width="120" height="40" as="geometry"/>
                </mxCell>
                <mxCell id="70" value="onRemoteBinder" style="rounded=0;whiteSpace=wrap;html=1;fillColor=#0050ef;strokeColor=#001DBC;fontColor=#ffffff;" vertex="1" parent="90">
                    <mxGeometry x="445" y="190" width="120" height="40" as="geometry"/>
                </mxCell>
                <mxCell id="72" value="" style="endArrow=classic;html=1;strokeColor=#FF0000;strokeWidth=5;exitX=1;exitY=1;exitDx=0;exitDy=0;entryX=0;entryY=0.75;entryDx=0;entryDy=0;" edge="1" parent="90" source="58" target="69">
                    <mxGeometry width="50" height="50" relative="1" as="geometry">
                        <mxPoint x="350" y="310" as="sourcePoint"/>
                        <mxPoint x="400" y="260" as="targetPoint"/>
                    </mxGeometry>
                </mxCell>
                <mxCell id="74" value="" style="endArrow=classic;html=1;strokeColor=#FF0000;strokeWidth=5;entryX=1;entryY=0.5;entryDx=0;entryDy=0;exitX=0.25;exitY=1;exitDx=0;exitDy=0;" edge="1" parent="90" source="69" target="60">
                    <mxGeometry width="50" height="50" relative="1" as="geometry">
                        <mxPoint x="350" y="310" as="sourcePoint"/>
                        <mxPoint x="400" y="260" as="targetPoint"/>
                    </mxGeometry>
                </mxCell>
                <mxCell id="75" value="" style="rounded=0;whiteSpace=wrap;html=1;fillColor=#f5f5f5;strokeColor=#666666;fontColor=#333333;" vertex="1" parent="90">
                    <mxGeometry x="30" y="430" width="240" height="100" as="geometry"/>
                </mxCell>
                <mxCell id="76" value="&lt;font color=&quot;#ff0000&quot;&gt;IXXX.Stub.Proxy&lt;br&gt;&lt;/font&gt;" style="text;html=1;align=center;verticalAlign=middle;resizable=0;points=[];autosize=1;" vertex="1" parent="90">
                    <mxGeometry x="50" y="450" width="100" height="20" as="geometry"/>
                </mxCell>
                <mxCell id="77" value="doXXX()" style="rounded=0;whiteSpace=wrap;html=1;fillColor=#0050ef;strokeColor=#001DBC;fontColor=#ffffff;" vertex="1" parent="90">
                    <mxGeometry x="40" y="480" width="120" height="40" as="geometry"/>
                </mxCell>
                <mxCell id="78" value="" style="rounded=0;whiteSpace=wrap;html=1;fillColor=#f5f5f5;strokeColor=#666666;fontColor=#333333;" vertex="1" parent="90">
                    <mxGeometry x="390" y="400" width="270" height="130" as="geometry"/>
                </mxCell>
                <mxCell id="79" value="&lt;font color=&quot;#ff0000&quot;&gt;IXXX.Stub&lt;br&gt;&lt;/font&gt;" style="text;html=1;align=center;verticalAlign=middle;resizable=0;points=[];autosize=1;" vertex="1" parent="90">
                    <mxGeometry x="460" y="410" width="70" height="20" as="geometry"/>
                </mxCell>
                <mxCell id="80" value="doXXX()" style="rounded=0;whiteSpace=wrap;html=1;fillColor=#0050ef;strokeColor=#001DBC;fontColor=#ffffff;" vertex="1" parent="90">
                    <mxGeometry x="440" y="430" width="140" height="40" as="geometry"/>
                </mxCell>
                <mxCell id="81" value="onTransact()" style="rounded=0;whiteSpace=wrap;html=1;fillColor=#0050ef;strokeColor=#001DBC;fontColor=#ffffff;" vertex="1" parent="90">
                    <mxGeometry x="440" y="480" width="140" height="40" as="geometry"/>
                </mxCell>
                <mxCell id="82" value="" style="endArrow=classic;html=1;strokeColor=#FF0000;strokeWidth=5;entryX=1;entryY=0;entryDx=0;entryDy=0;exitX=1;exitY=1;exitDx=0;exitDy=0;dashed=1;" edge="1" parent="90" source="60" target="75">
                    <mxGeometry width="50" height="50" relative="1" as="geometry">
                        <mxPoint x="350" y="310" as="sourcePoint"/>
                        <mxPoint x="400" y="260" as="targetPoint"/>
                    </mxGeometry>
                </mxCell>
                <mxCell id="83" value="Stub.asInterface" style="edgeLabel;html=1;align=center;verticalAlign=middle;resizable=0;points=[];" vertex="1" connectable="0" parent="82">
                    <mxGeometry x="-0.7296" relative="1" as="geometry">
                        <mxPoint as="offset"/>
                    </mxGeometry>
                </mxCell>
                <mxCell id="84" value="" style="endArrow=classic;html=1;strokeColor=#FF0000;strokeWidth=5;exitX=0.963;exitY=-0.046;exitDx=0;exitDy=0;exitPerimeter=0;" edge="1" parent="90" source="75" target="61">
                    <mxGeometry width="50" height="50" relative="1" as="geometry">
                        <mxPoint x="350" y="310" as="sourcePoint"/>
                        <mxPoint x="400" y="260" as="targetPoint"/>
                    </mxGeometry>
                </mxCell>
                <mxCell id="85" value="" style="endArrow=classic;html=1;strokeColor=#FF0000;strokeWidth=5;exitX=0.31;exitY=1.01;exitDx=0;exitDy=0;exitPerimeter=0;" edge="1" parent="90" source="61" target="77">
                    <mxGeometry width="50" height="50" relative="1" as="geometry">
                        <mxPoint x="350" y="310" as="sourcePoint"/>
                        <mxPoint x="400" y="260" as="targetPoint"/>
                    </mxGeometry>
                </mxCell>
                <mxCell id="86" value="" style="endArrow=classic;html=1;strokeColor=#FF0000;strokeWidth=5;exitX=1;exitY=0.75;exitDx=0;exitDy=0;" edge="1" parent="90" source="77" target="81">
                    <mxGeometry width="50" height="50" relative="1" as="geometry">
                        <mxPoint x="350" y="310" as="sourcePoint"/>
                        <mxPoint x="400" y="260" as="targetPoint"/>
                    </mxGeometry>
                </mxCell>
                <mxCell id="87" value="" style="endArrow=classic;html=1;strokeColor=#FF0000;strokeWidth=5;" edge="1" parent="90" source="70" target="78">
                    <mxGeometry width="50" height="50" relative="1" as="geometry">
                        <mxPoint x="350" y="310" as="sourcePoint"/>
                        <mxPoint x="400" y="260" as="targetPoint"/>
                    </mxGeometry>
                </mxCell>
                <mxCell id="88" value="IXXX.aidl" style="text;html=1;align=center;verticalAlign=middle;resizable=0;points=[];autosize=1;" vertex="1" parent="90">
                    <mxGeometry x="559" y="652" width="60" height="20" as="geometry"/>
                </mxCell>
                <mxCell id="89" value="AIDL 工具" style="endArrow=classic;html=1;strokeColor=#FF0000;strokeWidth=5;" edge="1" parent="90">
                    <mxGeometry width="50" height="50" relative="1" as="geometry">
                        <mxPoint x="590" y="640" as="sourcePoint"/>
                        <mxPoint x="583" y="580" as="targetPoint"/>
                    </mxGeometry>
                </mxCell>
                <mxCell id="135" value="" style="group" vertex="1" connectable="0" parent="1">
                    <mxGeometry x="70" y="1450" width="600" height="380" as="geometry"/>
                </mxCell>
                <mxCell id="91" value="" style="rounded=0;whiteSpace=wrap;html=1;fillColor=#f5f5f5;strokeColor=#666666;fontColor=#333333;" vertex="1" parent="135">
                    <mxGeometry width="600" height="380" as="geometry"/>
                </mxCell>
                <mxCell id="93" value="&lt;font color=&quot;#0000ff&quot;&gt;应用程序启动涉及到的进程间通信&lt;/font&gt;" style="text;html=1;align=center;verticalAlign=middle;resizable=0;points=[];autosize=1;" vertex="1" parent="135">
                    <mxGeometry x="40" y="16" width="200" height="20" as="geometry"/>
                </mxCell>
                <mxCell id="94" value="&lt;font color=&quot;#ff66b3&quot;&gt;Lancher&lt;/font&gt;" style="rounded=0;whiteSpace=wrap;html=1;fillColor=#fff2cc;strokeColor=#d6b656;" vertex="1" parent="135">
                    <mxGeometry x="40" y="66" width="120" height="60" as="geometry"/>
                </mxCell>
                <mxCell id="105" value="" style="edgeStyle=orthogonalEdgeStyle;rounded=0;orthogonalLoop=1;jettySize=auto;html=1;strokeColor=#6666FF;strokeWidth=5;entryX=0;entryY=0.5;entryDx=0;entryDy=0;" edge="1" parent="135">
                    <mxGeometry relative="1" as="geometry">
                        <mxPoint x="160" y="304" as="sourcePoint"/>
                        <mxPoint x="400" y="300" as="targetPoint"/>
                        <Array as="points">
                            <mxPoint x="280" y="304"/>
                            <mxPoint x="280" y="300"/>
                        </Array>
                    </mxGeometry>
                </mxCell>
                <mxCell id="106" value="Socket" style="edgeLabel;html=1;align=center;verticalAlign=middle;resizable=0;points=[];" vertex="1" connectable="0" parent="105">
                    <mxGeometry x="-0.0655" y="-3" relative="1" as="geometry">
                        <mxPoint as="offset"/>
                    </mxGeometry>
                </mxCell>
                <mxCell id="95" value="&lt;font color=&quot;#ff66b3&quot;&gt;SystemServer进程&lt;br&gt;AMS&lt;br&gt;&lt;/font&gt;" style="rounded=0;whiteSpace=wrap;html=1;fillColor=#fff2cc;strokeColor=#d6b656;" vertex="1" parent="135">
                    <mxGeometry x="40" y="270" width="120" height="60" as="geometry"/>
                </mxCell>
                <mxCell id="96" value="" style="endArrow=classic;html=1;strokeColor=#6666FF;strokeWidth=5;exitX=0.5;exitY=1;exitDx=0;exitDy=0;" edge="1" parent="135" source="94" target="95">
                    <mxGeometry width="50" height="50" relative="1" as="geometry">
                        <mxPoint x="320" y="186" as="sourcePoint"/>
                        <mxPoint x="370" y="136" as="targetPoint"/>
                    </mxGeometry>
                </mxCell>
                <mxCell id="100" value="Bindaer" style="edgeLabel;html=1;align=center;verticalAlign=middle;resizable=0;points=[];" vertex="1" connectable="0" parent="96">
                    <mxGeometry x="0.1056" y="3" relative="1" as="geometry">
                        <mxPoint as="offset"/>
                    </mxGeometry>
                </mxCell>
                <mxCell id="97" value="&lt;font color=&quot;#ff66b3&quot;&gt;app&lt;/font&gt;" style="rounded=0;whiteSpace=wrap;html=1;fillColor=#fff2cc;strokeColor=#d6b656;" vertex="1" parent="135">
                    <mxGeometry x="400" y="66" width="120" height="60" as="geometry"/>
                </mxCell>
                <mxCell id="98" value="&lt;font color=&quot;#ff66b3&quot;&gt;Zygote&lt;/font&gt;" style="rounded=0;whiteSpace=wrap;html=1;fillColor=#fff2cc;strokeColor=#d6b656;" vertex="1" parent="135">
                    <mxGeometry x="400" y="266" width="120" height="60" as="geometry"/>
                </mxCell>
                <mxCell id="99" value="Fork" style="endArrow=classic;html=1;strokeColor=#6666FF;strokeWidth=5;" edge="1" parent="135" source="98" target="97">
                    <mxGeometry width="50" height="50" relative="1" as="geometry">
                        <mxPoint x="320" y="186" as="sourcePoint"/>
                        <mxPoint x="370" y="136" as="targetPoint"/>
                    </mxGeometry>
                </mxCell>
                <mxCell id="101" value="" style="endArrow=classic;html=1;strokeColor=#6666FF;strokeWidth=5;entryX=0.575;entryY=-0.007;entryDx=0;entryDy=0;entryPerimeter=0;exitX=0;exitY=0.75;exitDx=0;exitDy=0;" edge="1" parent="135">
                    <mxGeometry width="50" height="50" relative="1" as="geometry">
                        <mxPoint x="401" y="111.42000000000007" as="sourcePoint"/>
                        <mxPoint x="110" y="270" as="targetPoint"/>
                        <Array as="points">
                            <mxPoint x="371" y="111.42000000000007"/>
                            <mxPoint x="371" y="256.4200000000001"/>
                        </Array>
                    </mxGeometry>
                </mxCell>
                <mxCell id="102" value="Binder" style="edgeLabel;html=1;align=center;verticalAlign=middle;resizable=0;points=[];" vertex="1" connectable="0" parent="101">
                    <mxGeometry x="-0.2767" y="-74" relative="1" as="geometry">
                        <mxPoint x="-3" y="17" as="offset"/>
                    </mxGeometry>
                </mxCell>
                <mxCell id="136" value="" style="group" vertex="1" connectable="0" parent="1">
                    <mxGeometry x="50" y="1870" width="660" height="430" as="geometry"/>
                </mxCell>
                <mxCell id="107" value="" style="rounded=0;whiteSpace=wrap;html=1;fillColor=#f5f5f5;strokeColor=#666666;fontColor=#333333;" vertex="1" parent="136">
                    <mxGeometry width="660" height="430" as="geometry"/>
                </mxCell>
                <mxCell id="108" value="&lt;font color=&quot;#ff0000&quot;&gt;根Activity启动过程中设计到的进程间的关系&lt;/font&gt;" style="text;html=1;align=center;verticalAlign=middle;resizable=0;points=[];autosize=1;" vertex="1" parent="136">
                    <mxGeometry x="20" y="20" width="240" height="20" as="geometry"/>
                </mxCell>
                <mxCell id="109" value="" style="rounded=0;whiteSpace=wrap;html=1;fillColor=#d5e8d4;strokeColor=#82b366;" vertex="1" parent="136">
                    <mxGeometry x="30" y="50" width="120" height="150" as="geometry"/>
                </mxCell>
                <mxCell id="111" value="&lt;font color=&quot;#0000ff&quot;&gt;AMS&lt;/font&gt;" style="rounded=0;whiteSpace=wrap;html=1;fillColor=#dae8fc;strokeColor=#6c8ebf;" vertex="1" parent="136">
                    <mxGeometry x="40" y="90" width="100" height="100" as="geometry"/>
                </mxCell>
                <mxCell id="112" value="&lt;font color=&quot;#ff0000&quot;&gt;SystemServer进程&lt;/font&gt;" style="text;html=1;align=center;verticalAlign=middle;resizable=0;points=[];autosize=1;" vertex="1" parent="136">
                    <mxGeometry x="40" y="60" width="110" height="20" as="geometry"/>
                </mxCell>
                <mxCell id="115" style="edgeStyle=orthogonalEdgeStyle;rounded=0;orthogonalLoop=1;jettySize=auto;html=1;strokeColor=#6666FF;strokeWidth=5;" edge="1" parent="136" source="113" target="111">
                    <mxGeometry relative="1" as="geometry"/>
                </mxCell>
                <mxCell id="116" value="1.请求创建根Activity" style="edgeLabel;html=1;align=center;verticalAlign=middle;resizable=0;points=[];" vertex="1" connectable="0" parent="115">
                    <mxGeometry x="-0.2861" y="1" relative="1" as="geometry">
                        <mxPoint as="offset"/>
                    </mxGeometry>
                </mxCell>
                <mxCell id="113" value="Launcher进程" style="rounded=0;whiteSpace=wrap;html=1;fillColor=#0050ef;strokeColor=#001DBC;fontColor=#ffffff;" vertex="1" parent="136">
                    <mxGeometry x="40" y="310" width="100" height="60" as="geometry"/>
                </mxCell>
                <mxCell id="118" value="" style="rounded=0;whiteSpace=wrap;html=1;fillColor=#d5e8d4;strokeColor=#82b366;" vertex="1" parent="136">
                    <mxGeometry x="440" y="40" width="120" height="150" as="geometry"/>
                </mxCell>
                <mxCell id="119" value="" style="rounded=0;whiteSpace=wrap;html=1;fillColor=#dae8fc;strokeColor=#6c8ebf;" vertex="1" parent="136">
                    <mxGeometry x="450" y="80" width="100" height="100" as="geometry"/>
                </mxCell>
                <mxCell id="120" value="&lt;font color=&quot;#ff0000&quot;&gt;应用程序进程&lt;/font&gt;" style="text;html=1;align=center;verticalAlign=middle;resizable=0;points=[];autosize=1;" vertex="1" parent="136">
                    <mxGeometry x="440" y="50" width="90" height="20" as="geometry"/>
                </mxCell>
                <mxCell id="121" value="&lt;font color=&quot;#ff0000&quot;&gt;ActivityThread&lt;/font&gt;" style="text;html=1;align=center;verticalAlign=middle;resizable=0;points=[];autosize=1;" vertex="1" parent="136">
                    <mxGeometry x="450" y="90" width="90" height="20" as="geometry"/>
                </mxCell>
                <mxCell id="122" value="ApplicationThread" style="rounded=0;whiteSpace=wrap;html=1;fillColor=#0050ef;strokeColor=#001DBC;fontColor=#ffffff;" vertex="1" parent="136">
                    <mxGeometry x="450" y="125" width="100" height="30" as="geometry"/>
                </mxCell>
                <mxCell id="132" style="edgeStyle=orthogonalEdgeStyle;rounded=0;orthogonalLoop=1;jettySize=auto;html=1;strokeColor=#6666FF;strokeWidth=5;" edge="1" parent="136" source="109" target="122">
                    <mxGeometry relative="1" as="geometry">
                        <Array as="points">
                            <mxPoint x="260" y="140"/>
                            <mxPoint x="260" y="140"/>
                        </Array>
                    </mxGeometry>
                </mxCell>
                <mxCell id="133" value="4.请求创建根Activity" style="edgeLabel;html=1;align=center;verticalAlign=middle;resizable=0;points=[];" vertex="1" connectable="0" parent="132">
                    <mxGeometry x="-0.0233" y="1" relative="1" as="geometry">
                        <mxPoint as="offset"/>
                    </mxGeometry>
                </mxCell>
                <mxCell id="129" style="edgeStyle=orthogonalEdgeStyle;rounded=0;orthogonalLoop=1;jettySize=auto;html=1;strokeColor=#6666FF;strokeWidth=5;entryX=0.547;entryY=1.003;entryDx=0;entryDy=0;entryPerimeter=0;" edge="1" parent="136" source="123" target="118">
                    <mxGeometry relative="1" as="geometry">
                        <mxPoint x="506" y="200" as="targetPoint"/>
                    </mxGeometry>
                </mxCell>
                <mxCell id="130" value="3.创建应用程序进程" style="edgeLabel;html=1;align=center;verticalAlign=middle;resizable=0;points=[];" vertex="1" connectable="0" parent="129">
                    <mxGeometry x="-0.2361" y="-2" relative="1" as="geometry">
                        <mxPoint as="offset"/>
                    </mxGeometry>
                </mxCell>
                <mxCell id="123" value="Zygote进程" style="rounded=0;whiteSpace=wrap;html=1;fillColor=#0050ef;strokeColor=#001DBC;fontColor=#ffffff;" vertex="1" parent="136">
                    <mxGeometry x="456" y="300" width="100" height="60" as="geometry"/>
                </mxCell>
                <mxCell id="125" style="edgeStyle=orthogonalEdgeStyle;rounded=0;orthogonalLoop=1;jettySize=auto;html=1;exitX=1;exitY=1;exitDx=0;exitDy=0;strokeColor=#6666FF;strokeWidth=5;" edge="1" parent="136" source="109" target="123">
                    <mxGeometry relative="1" as="geometry">
                        <Array as="points">
                            <mxPoint x="150" y="400"/>
                            <mxPoint x="500" y="400"/>
                        </Array>
                    </mxGeometry>
                </mxCell>
                <mxCell id="126" value="2请求创建应用程序进程" style="edgeLabel;html=1;align=center;verticalAlign=middle;resizable=0;points=[];" vertex="1" connectable="0" parent="125">
                    <mxGeometry x="0.1435" y="-1" relative="1" as="geometry">
                        <mxPoint as="offset"/>
                    </mxGeometry>
                </mxCell>
                <mxCell id="168" value="" style="group" vertex="1" connectable="0" parent="1">
                    <mxGeometry x="40" y="2410" width="720" height="400" as="geometry"/>
                </mxCell>
                <mxCell id="170" value="" style="group" vertex="1" connectable="0" parent="168">
                    <mxGeometry y="-30" width="720" height="390" as="geometry"/>
                </mxCell>
                <mxCell id="138" value="" style="rounded=0;whiteSpace=wrap;html=1;fillColor=#f5f5f5;strokeColor=#666666;fontColor=#333333;" vertex="1" parent="170">
                    <mxGeometry width="720" height="390" as="geometry"/>
                </mxCell>
                <mxCell id="139" value="Launcher" style="shape=umlLifeline;perimeter=lifelinePerimeter;whiteSpace=wrap;html=1;container=1;collapsible=0;recursiveResize=0;outlineConnect=0;fillColor=#0050ef;strokeColor=#001DBC;fontColor=#ffffff;" vertex="1" parent="170">
                    <mxGeometry x="40" y="63" width="100" height="300" as="geometry"/>
                </mxCell>
                <mxCell id="140" value="" style="html=1;points=[];perimeter=orthogonalPerimeter;fillColor=#0050ef;strokeColor=#001DBC;fontColor=#ffffff;" vertex="1" parent="139">
                    <mxGeometry x="47.5" y="60" width="5" height="80" as="geometry"/>
                </mxCell>
                <mxCell id="151" value="AMS" style="shape=umlLifeline;perimeter=lifelinePerimeter;whiteSpace=wrap;html=1;container=1;collapsible=0;recursiveResize=0;outlineConnect=0;fillColor=#0050ef;strokeColor=#001DBC;fontColor=#ffffff;" vertex="1" parent="170">
                    <mxGeometry x="210" y="63" width="100" height="310" as="geometry"/>
                </mxCell>
                <mxCell id="141" value="" style="html=1;points=[];perimeter=orthogonalPerimeter;fillColor=#0050ef;strokeColor=#001DBC;fontColor=#ffffff;" vertex="1" parent="151">
                    <mxGeometry x="47.5" y="60" width="5" height="80" as="geometry"/>
                </mxCell>
                <mxCell id="162" value="" style="html=1;points=[];perimeter=orthogonalPerimeter;fillColor=#0050ef;strokeColor=#001DBC;fontColor=#ffffff;" vertex="1" parent="151">
                    <mxGeometry x="47.5" y="170" width="5" height="140" as="geometry"/>
                </mxCell>
                <mxCell id="142" value="1请求根Activity" style="edgeStyle=orthogonalEdgeStyle;rounded=0;orthogonalLoop=1;jettySize=auto;html=1;strokeColor=#6666FF;strokeWidth=5;" edge="1" parent="170" source="140" target="141">
                    <mxGeometry relative="1" as="geometry"/>
                </mxCell>
                <mxCell id="154" value="Zgote进程" style="shape=umlLifeline;perimeter=lifelinePerimeter;whiteSpace=wrap;html=1;container=1;collapsible=0;recursiveResize=0;outlineConnect=0;fillColor=#0050ef;strokeColor=#001DBC;fontColor=#ffffff;" vertex="1" parent="170">
                    <mxGeometry x="390" y="63" width="100" height="300" as="geometry"/>
                </mxCell>
                <mxCell id="156" value="" style="html=1;points=[];perimeter=orthogonalPerimeter;fillColor=#0050ef;strokeColor=#001DBC;fontColor=#ffffff;" vertex="1" parent="154">
                    <mxGeometry x="47.5" y="100" width="5" height="80" as="geometry"/>
                </mxCell>
                <mxCell id="155" value="应用程序进程" style="shape=umlLifeline;perimeter=lifelinePerimeter;whiteSpace=wrap;html=1;container=1;collapsible=0;recursiveResize=0;outlineConnect=0;fillColor=#0050ef;strokeColor=#001DBC;fontColor=#ffffff;" vertex="1" parent="170">
                    <mxGeometry x="560" y="63" width="100" height="310" as="geometry"/>
                </mxCell>
                <mxCell id="159" value="" style="html=1;points=[];perimeter=orthogonalPerimeter;fillColor=#0050ef;strokeColor=#001DBC;fontColor=#ffffff;" vertex="1" parent="155">
                    <mxGeometry x="47.5" y="130" width="5" height="100" as="geometry"/>
                </mxCell>
                <mxCell id="165" value="" style="html=1;points=[];perimeter=orthogonalPerimeter;fillColor=#0050ef;strokeColor=#001DBC;fontColor=#ffffff;" vertex="1" parent="155">
                    <mxGeometry x="47.5" y="270" width="5" height="40" as="geometry"/>
                </mxCell>
                <mxCell id="157" value="" style="edgeStyle=orthogonalEdgeStyle;rounded=0;orthogonalLoop=1;jettySize=auto;html=1;strokeColor=#6666FF;strokeWidth=5;" edge="1" parent="170" source="141" target="156">
                    <mxGeometry relative="1" as="geometry">
                        <Array as="points">
                            <mxPoint x="290" y="180"/>
                            <mxPoint x="290" y="180"/>
                        </Array>
                    </mxGeometry>
                </mxCell>
                <mxCell id="158" value="2，创建应用程序Socket" style="edgeLabel;html=1;align=center;verticalAlign=middle;resizable=0;points=[];" vertex="1" connectable="0" parent="157">
                    <mxGeometry x="-0.2571" y="-3" relative="1" as="geometry">
                        <mxPoint x="17.5" y="-3" as="offset"/>
                    </mxGeometry>
                </mxCell>
                <mxCell id="160" value="" style="edgeStyle=orthogonalEdgeStyle;rounded=0;orthogonalLoop=1;jettySize=auto;html=1;strokeColor=#6666FF;strokeWidth=5;exitX=0.5;exitY=0.5;exitDx=0;exitDy=0;exitPerimeter=0;" edge="1" parent="170" source="156">
                    <mxGeometry relative="1" as="geometry">
                        <mxPoint x="447.5" y="200" as="sourcePoint"/>
                        <mxPoint x="612.5" y="200" as="targetPoint"/>
                        <Array as="points"/>
                    </mxGeometry>
                </mxCell>
                <mxCell id="161" value="3.创建并启动应用程序进程" style="edgeLabel;html=1;align=center;verticalAlign=middle;resizable=0;points=[];" vertex="1" connectable="0" parent="160">
                    <mxGeometry x="0.1516" y="2" relative="1" as="geometry">
                        <mxPoint x="-23.17" y="2" as="offset"/>
                    </mxGeometry>
                </mxCell>
                <mxCell id="163" value="" style="edgeStyle=orthogonalEdgeStyle;rounded=0;orthogonalLoop=1;jettySize=auto;html=1;strokeColor=#6666FF;strokeWidth=5;" edge="1" parent="170" source="159" target="162">
                    <mxGeometry relative="1" as="geometry">
                        <Array as="points">
                            <mxPoint x="310" y="270"/>
                            <mxPoint x="310" y="270"/>
                        </Array>
                    </mxGeometry>
                </mxCell>
                <mxCell id="164" value="4.应用程序准备就绪" style="edgeLabel;html=1;align=center;verticalAlign=middle;resizable=0;points=[];" vertex="1" connectable="0" parent="163">
                    <mxGeometry x="0.343" relative="1" as="geometry">
                        <mxPoint as="offset"/>
                    </mxGeometry>
                </mxCell>
                <mxCell id="166" value="" style="edgeStyle=orthogonalEdgeStyle;rounded=0;orthogonalLoop=1;jettySize=auto;html=1;strokeColor=#6666FF;strokeWidth=5;" edge="1" parent="170" source="162" target="165">
                    <mxGeometry relative="1" as="geometry">
                        <Array as="points">
                            <mxPoint x="350" y="350"/>
                            <mxPoint x="350" y="350"/>
                        </Array>
                    </mxGeometry>
                </mxCell>
                <mxCell id="167" value="5启动根Activity" style="edgeLabel;html=1;align=center;verticalAlign=middle;resizable=0;points=[];" vertex="1" connectable="0" parent="166">
                    <mxGeometry x="0.087" y="-1" relative="1" as="geometry">
                        <mxPoint as="offset"/>
                    </mxGeometry>
                </mxCell>
                <mxCell id="169" value="&lt;font color=&quot;#0000ff&quot;&gt;根Activity启动过程中进程调用时序图&lt;/font&gt;" style="text;html=1;align=center;verticalAlign=middle;resizable=0;points=[];autosize=1;" vertex="1" parent="1">
                    <mxGeometry x="60" y="2400" width="210" height="20" as="geometry"/>
                </mxCell>
                <mxCell id="172" value="" style="group" vertex="1" connectable="0" parent="1">
                    <mxGeometry x="80" y="470" width="610" height="230" as="geometry"/>
                </mxCell>
                <mxCell id="53" value="" style="group" vertex="1" connectable="0" parent="172">
                    <mxGeometry width="610" height="230" as="geometry"/>
                </mxCell>
                <mxCell id="37" value="AIDL接口" style="rounded=0;whiteSpace=wrap;html=1;fillColor=#0050ef;strokeColor=#001DBC;fontColor=#ffffff;" vertex="1" parent="53">
                    <mxGeometry width="120" height="60" as="geometry"/>
                </mxCell>
                <mxCell id="42" value="stub抽象类" style="rounded=0;whiteSpace=wrap;html=1;fillColor=#0050ef;strokeColor=#001DBC;fontColor=#ffffff;" vertex="1" parent="53">
                    <mxGeometry x="160" width="120" height="60" as="geometry"/>
                </mxCell>
                <mxCell id="43" value="Proxy类" style="rounded=0;whiteSpace=wrap;html=1;fillColor=#0050ef;strokeColor=#001DBC;fontColor=#ffffff;" vertex="1" parent="53">
                    <mxGeometry x="314" width="120" height="60" as="geometry"/>
                </mxCell>
                <mxCell id="44" value="Stub的实现" style="rounded=0;whiteSpace=wrap;html=1;fillColor=#0050ef;strokeColor=#001DBC;fontColor=#ffffff;" vertex="1" parent="53">
                    <mxGeometry x="480" width="120" height="60" as="geometry"/>
                </mxCell>
                <mxCell id="45" value="IZcwAidl" style="rounded=0;whiteSpace=wrap;html=1;fillColor=#6d8764;strokeColor=#3A5431;fontColor=#ffffff;" vertex="1" parent="53">
                    <mxGeometry y="85" width="120" height="60" as="geometry"/>
                </mxCell>
                <mxCell id="46" value="IActivityManager" style="rounded=0;whiteSpace=wrap;html=1;fillColor=#647687;strokeColor=#314354;fontColor=#ffffff;" vertex="1" parent="53">
                    <mxGeometry y="170" width="120" height="60" as="geometry"/>
                </mxCell>
                <mxCell id="47" value="Stub" style="rounded=0;whiteSpace=wrap;html=1;fillColor=#6d8764;strokeColor=#3A5431;fontColor=#ffffff;" vertex="1" parent="53">
                    <mxGeometry x="160" y="80" width="120" height="60" as="geometry"/>
                </mxCell>
                <mxCell id="48" value="Proxy" style="rounded=0;whiteSpace=wrap;html=1;fillColor=#6d8764;strokeColor=#3A5431;fontColor=#ffffff;" vertex="1" parent="53">
                    <mxGeometry x="320" y="80" width="120" height="60" as="geometry"/>
                </mxCell>
                <mxCell id="49" value="new IZcwAidl.Stub" style="rounded=0;whiteSpace=wrap;html=1;fillColor=#6d8764;strokeColor=#3A5431;fontColor=#ffffff;" vertex="1" parent="53">
                    <mxGeometry x="480" y="85" width="120" height="60" as="geometry"/>
                </mxCell>
                <mxCell id="50" value="ActivityManagerNative" style="rounded=0;whiteSpace=wrap;html=1;fillColor=#647687;strokeColor=#314354;fontColor=#ffffff;" vertex="1" parent="53">
                    <mxGeometry x="160" y="170" width="120" height="60" as="geometry"/>
                </mxCell>
                <mxCell id="51" value="ActivityManagerProxy" style="rounded=0;whiteSpace=wrap;html=1;fillColor=#647687;strokeColor=#314354;fontColor=#ffffff;" vertex="1" parent="53">
                    <mxGeometry x="320" y="170" width="120" height="60" as="geometry"/>
                </mxCell>
                <mxCell id="52" value="ActivityManagerService" style="rounded=0;whiteSpace=wrap;html=1;fillColor=#647687;strokeColor=#314354;fontColor=#ffffff;" vertex="1" parent="53">
                    <mxGeometry x="480" y="170" width="130" height="60" as="geometry"/>
                </mxCell>
                <mxCell id="207" value="" style="group" vertex="1" connectable="0" parent="1">
                    <mxGeometry x="40" y="2840" width="720" height="400" as="geometry"/>
                </mxCell>
                <mxCell id="173" value="" style="rounded=0;whiteSpace=wrap;html=1;fillColor=#f5f5f5;strokeColor=#666666;fontColor=#333333;" vertex="1" parent="207">
                    <mxGeometry width="720" height="400" as="geometry"/>
                </mxCell>
                <mxCell id="174" value="Launcher" style="shape=umlLifeline;perimeter=lifelinePerimeter;whiteSpace=wrap;html=1;container=1;collapsible=0;recursiveResize=0;outlineConnect=0;fillColor=#0050ef;strokeColor=#001DBC;fontColor=#ffffff;" vertex="1" parent="207">
                    <mxGeometry x="30" y="50" width="100" height="320" as="geometry"/>
                </mxCell>
                <mxCell id="179" value="&lt;font color=&quot;#ff0000&quot;&gt;StartActivitySafer&lt;/font&gt;" style="html=1;points=[];perimeter=orthogonalPerimeter;fillColor=#0050ef;strokeColor=#001DBC;fontColor=#ffffff;" vertex="1" parent="174">
                    <mxGeometry x="45" y="60" width="10" height="40" as="geometry"/>
                </mxCell>
                <mxCell id="175" value="Activity" style="shape=umlLifeline;perimeter=lifelinePerimeter;whiteSpace=wrap;html=1;container=1;collapsible=0;recursiveResize=0;outlineConnect=0;fillColor=#0050ef;strokeColor=#001DBC;fontColor=#ffffff;" vertex="1" parent="207">
                    <mxGeometry x="160" y="50" width="145" height="320" as="geometry"/>
                </mxCell>
                <mxCell id="195" value="" style="html=1;points=[];perimeter=orthogonalPerimeter;fillColor=#0050ef;strokeColor=#001DBC;fontColor=#ffffff;" vertex="1" parent="175">
                    <mxGeometry x="70" y="80" width="10" height="90" as="geometry"/>
                </mxCell>
                <mxCell id="196" value="StartActivityForResult" style="edgeStyle=orthogonalEdgeStyle;html=1;align=left;spacingLeft=2;endArrow=block;rounded=0;entryX=1;entryY=0;strokeColor=#001DBC;strokeWidth=5;fillColor=#0050ef;" edge="1" target="195" parent="175">
                    <mxGeometry relative="1" as="geometry">
                        <mxPoint x="75" y="60" as="sourcePoint"/>
                        <Array as="points">
                            <mxPoint x="100" y="60"/>
                            <mxPoint x="100" y="80"/>
                        </Array>
                    </mxGeometry>
                </mxCell>
                <mxCell id="177" value="IActivityManager" style="shape=umlLifeline;perimeter=lifelinePerimeter;whiteSpace=wrap;html=1;container=1;collapsible=0;recursiveResize=0;outlineConnect=0;fillColor=#0050ef;strokeColor=#001DBC;fontColor=#ffffff;" vertex="1" parent="207">
                    <mxGeometry x="480" y="50" width="100" height="320" as="geometry"/>
                </mxCell>
                <mxCell id="201" value="" style="html=1;points=[];perimeter=orthogonalPerimeter;fillColor=#0050ef;strokeColor=#001DBC;fontColor=#ffffff;" vertex="1" parent="177">
                    <mxGeometry x="45" y="150" width="10" height="80" as="geometry"/>
                </mxCell>
                <mxCell id="178" value="AMS" style="shape=umlLifeline;perimeter=lifelinePerimeter;whiteSpace=wrap;html=1;container=1;collapsible=0;recursiveResize=0;outlineConnect=0;fillColor=#0050ef;strokeColor=#001DBC;fontColor=#ffffff;" vertex="1" parent="207">
                    <mxGeometry x="610" y="50" width="100" height="320" as="geometry"/>
                </mxCell>
                <mxCell id="204" value="" style="html=1;points=[];perimeter=orthogonalPerimeter;fillColor=#0050ef;strokeColor=#001DBC;fontColor=#ffffff;" vertex="1" parent="178">
                    <mxGeometry x="45" y="180" width="10" height="80" as="geometry"/>
                </mxCell>
                <mxCell id="176" value="Instrumentation" style="shape=umlLifeline;perimeter=lifelinePerimeter;whiteSpace=wrap;html=1;container=1;collapsible=0;recursiveResize=0;outlineConnect=0;fillColor=#0050ef;strokeColor=#001DBC;fontColor=#ffffff;" vertex="1" parent="207">
                    <mxGeometry x="342.5" y="50" width="100" height="320" as="geometry"/>
                </mxCell>
                <mxCell id="198" value="" style="html=1;points=[];perimeter=orthogonalPerimeter;fillColor=#0050ef;strokeColor=#001DBC;fontColor=#ffffff;" vertex="1" parent="176">
                    <mxGeometry x="45" y="120" width="10" height="80" as="geometry"/>
                </mxCell>
                <mxCell id="184" value="" style="edgeStyle=orthogonalEdgeStyle;rounded=0;orthogonalLoop=1;jettySize=auto;html=1;strokeColor=#6666FF;strokeWidth=5;" edge="1" parent="207" source="179">
                    <mxGeometry relative="1" as="geometry">
                        <mxPoint x="247.5" y="130" as="targetPoint"/>
                        <Array as="points">
                            <mxPoint x="200" y="130"/>
                            <mxPoint x="200" y="130"/>
                        </Array>
                    </mxGeometry>
                </mxCell>
                <mxCell id="185" value="startActivity" style="edgeLabel;html=1;align=center;verticalAlign=middle;resizable=0;points=[];" vertex="1" connectable="0" parent="184">
                    <mxGeometry x="0.5333" y="42" relative="1" as="geometry">
                        <mxPoint x="-42" y="42" as="offset"/>
                    </mxGeometry>
                </mxCell>
                <mxCell id="197" style="edgeStyle=orthogonalEdgeStyle;rounded=0;orthogonalLoop=1;jettySize=auto;html=1;strokeColor=#6666FF;strokeWidth=5;" edge="1" parent="207" source="195" target="176">
                    <mxGeometry relative="1" as="geometry">
                        <Array as="points">
                            <mxPoint x="280" y="210"/>
                            <mxPoint x="280" y="210"/>
                        </Array>
                    </mxGeometry>
                </mxCell>
                <mxCell id="199" value="exeStartActivity" style="edgeLabel;html=1;align=center;verticalAlign=middle;resizable=0;points=[];" vertex="1" connectable="0" parent="197">
                    <mxGeometry x="-0.1439" y="3" relative="1" as="geometry">
                        <mxPoint as="offset"/>
                    </mxGeometry>
                </mxCell>
                <mxCell id="200" style="edgeStyle=orthogonalEdgeStyle;rounded=0;orthogonalLoop=1;jettySize=auto;html=1;strokeColor=#6666FF;strokeWidth=5;" edge="1" parent="207" source="198" target="177">
                    <mxGeometry relative="1" as="geometry"/>
                </mxCell>
                <mxCell id="202" value="startActivity&lt;br&gt;" style="edgeLabel;html=1;align=center;verticalAlign=middle;resizable=0;points=[];" vertex="1" connectable="0" parent="200">
                    <mxGeometry x="0.2349" relative="1" as="geometry">
                        <mxPoint as="offset"/>
                    </mxGeometry>
                </mxCell>
                <mxCell id="203" style="edgeStyle=orthogonalEdgeStyle;rounded=0;orthogonalLoop=1;jettySize=auto;html=1;strokeColor=#6666FF;strokeWidth=5;" edge="1" parent="207" source="201" target="178">
                    <mxGeometry relative="1" as="geometry">
                        <Array as="points">
                            <mxPoint x="620" y="240"/>
                            <mxPoint x="620" y="240"/>
                        </Array>
                    </mxGeometry>
                </mxCell>
                <mxCell id="205" value="startActivity" style="edgeLabel;html=1;align=center;verticalAlign=middle;resizable=0;points=[];" vertex="1" connectable="0" parent="203">
                    <mxGeometry x="0.3655" y="-21" relative="1" as="geometry">
                        <mxPoint x="-21" y="-19" as="offset"/>
                    </mxGeometry>
                </mxCell>
                <mxCell id="206" value="&lt;font color=&quot;#0000ff&quot;&gt;Launcher请求AMS的过程&lt;/font&gt;" style="text;html=1;align=center;verticalAlign=middle;resizable=0;points=[];autosize=1;" vertex="1" parent="207">
                    <mxGeometry x="10" y="10" width="150" height="20" as="geometry"/>
                </mxCell>
                <mxCell id="250" value="" style="group" vertex="1" connectable="0" parent="1">
                    <mxGeometry x="35" y="3270" width="730" height="400" as="geometry"/>
                </mxCell>
                <mxCell id="249" value="" style="group" vertex="1" connectable="0" parent="250">
                    <mxGeometry width="730" height="400" as="geometry"/>
                </mxCell>
                <mxCell id="208" value="" style="rounded=0;whiteSpace=wrap;html=1;fillColor=#f9f7ed;strokeColor=#36393d;" vertex="1" parent="249">
                    <mxGeometry y="10" width="730" height="400" as="geometry"/>
                </mxCell>
                <mxCell id="209" value="&lt;font color=&quot;#ff0000&quot;&gt;Activity通信模型&lt;/font&gt;" style="text;html=1;align=center;verticalAlign=middle;resizable=0;points=[];autosize=1;" vertex="1" parent="249">
                    <mxGeometry y="20" width="100" height="20" as="geometry"/>
                </mxCell>
                <mxCell id="210" value="" style="rounded=0;whiteSpace=wrap;html=1;fillColor=#cce5ff;strokeColor=#36393d;" vertex="1" parent="249">
                    <mxGeometry x="10" y="60" width="210" height="320" as="geometry"/>
                </mxCell>
                <mxCell id="211" value="" style="rounded=0;whiteSpace=wrap;html=1;fillColor=#eeeeee;strokeColor=#36393d;" vertex="1" parent="249">
                    <mxGeometry x="40" y="110" width="160" height="60" as="geometry"/>
                </mxCell>
                <mxCell id="212" value="&lt;font color=&quot;#ff0000&quot;&gt;App进程&lt;/font&gt;" style="text;html=1;align=center;verticalAlign=middle;resizable=0;points=[];autosize=1;" vertex="1" parent="249">
                    <mxGeometry x="85" y="60" width="60" height="20" as="geometry"/>
                </mxCell>
                <mxCell id="214" value="" style="rounded=0;whiteSpace=wrap;html=1;fillColor=#eeeeee;strokeColor=#36393d;" vertex="1" parent="249">
                    <mxGeometry x="40" y="200" width="160" height="60" as="geometry"/>
                </mxCell>
                <mxCell id="215" value="" style="rounded=0;whiteSpace=wrap;html=1;fillColor=#eeeeee;strokeColor=#36393d;" vertex="1" parent="249">
                    <mxGeometry x="40" y="290" width="160" height="80" as="geometry"/>
                </mxCell>
                <mxCell id="216" value="" style="rounded=0;whiteSpace=wrap;html=1;fillColor=#cce5ff;strokeColor=#36393d;" vertex="1" parent="249">
                    <mxGeometry x="430" y="60" width="210" height="320" as="geometry"/>
                </mxCell>
                <mxCell id="218" value="&lt;font color=&quot;#ff0000&quot;&gt;System_Server进程&lt;/font&gt;" style="text;html=1;align=center;verticalAlign=middle;resizable=0;points=[];autosize=1;" vertex="1" parent="249">
                    <mxGeometry x="475" y="60" width="120" height="20" as="geometry"/>
                </mxCell>
                <mxCell id="219" value="" style="rounded=0;whiteSpace=wrap;html=1;fillColor=#eeeeee;strokeColor=#36393d;" vertex="1" parent="249">
                    <mxGeometry x="455" y="180" width="160" height="60" as="geometry"/>
                </mxCell>
                <mxCell id="220" value="" style="rounded=0;whiteSpace=wrap;html=1;fillColor=#eeeeee;strokeColor=#36393d;" vertex="1" parent="249">
                    <mxGeometry x="455" y="280" width="160" height="80" as="geometry"/>
                </mxCell>
                <mxCell id="221" value="&lt;font color=&quot;#ff0000&quot;&gt;线程2（Binder客户端）&lt;/font&gt;" style="text;html=1;align=center;verticalAlign=middle;resizable=0;points=[];autosize=1;" vertex="1" parent="249">
                    <mxGeometry x="450" y="180" width="140" height="20" as="geometry"/>
                </mxCell>
                <mxCell id="222" value="&lt;font color=&quot;#ff0000&quot;&gt;线程1（Binde服务端）&lt;/font&gt;" style="text;html=1;align=center;verticalAlign=middle;resizable=0;points=[];autosize=1;" vertex="1" parent="249">
                    <mxGeometry x="460" y="280" width="140" height="20" as="geometry"/>
                </mxCell>
                <mxCell id="231" style="edgeStyle=orthogonalEdgeStyle;rounded=0;orthogonalLoop=1;jettySize=auto;html=1;entryX=1;entryY=0.5;entryDx=0;entryDy=0;strokeColor=#6666FF;strokeWidth=5;exitX=0;exitY=0.5;exitDx=0;exitDy=0;" edge="1" parent="249" source="219" target="214">
                    <mxGeometry relative="1" as="geometry">
                        <Array as="points"/>
                    </mxGeometry>
                </mxCell>
                <mxCell id="232" value="Binder方式&lt;br&gt;" style="edgeLabel;html=1;align=center;verticalAlign=middle;resizable=0;points=[];" vertex="1" connectable="0" parent="231">
                    <mxGeometry x="0.2181" y="2" relative="1" as="geometry">
                        <mxPoint as="offset"/>
                    </mxGeometry>
                </mxCell>
                <mxCell id="223" value="ApplicationThreadProxy" style="rounded=0;whiteSpace=wrap;html=1;fillColor=#0050ef;strokeColor=#001DBC;fontColor=#ffffff;" vertex="1" parent="249">
                    <mxGeometry x="460" y="205" width="150" height="30" as="geometry"/>
                </mxCell>
                <mxCell id="224" value="ActivityManagerService" style="rounded=0;whiteSpace=wrap;html=1;fillColor=#0050ef;strokeColor=#001DBC;fontColor=#ffffff;" vertex="1" parent="249">
                    <mxGeometry x="465" y="320" width="150" height="30" as="geometry"/>
                </mxCell>
                <mxCell id="225" value="&lt;font color=&quot;#ff0000&quot;&gt;线程3（Binde客户端）&lt;/font&gt;" style="text;html=1;align=center;verticalAlign=middle;resizable=0;points=[];autosize=1;" vertex="1" parent="249">
                    <mxGeometry x="40" y="290" width="140" height="20" as="geometry"/>
                </mxCell>
                <mxCell id="226" value="&lt;font color=&quot;#ff0000&quot;&gt;线程4（Binde服务端）&lt;/font&gt;" style="text;html=1;align=center;verticalAlign=middle;resizable=0;points=[];autosize=1;" vertex="1" parent="249">
                    <mxGeometry x="40" y="200" width="140" height="20" as="geometry"/>
                </mxCell>
                <mxCell id="228" value="ApplicationThread" style="rounded=0;whiteSpace=wrap;html=1;fillColor=#0050ef;strokeColor=#001DBC;fontColor=#ffffff;" vertex="1" parent="249">
                    <mxGeometry x="50" y="220" width="140" height="30" as="geometry"/>
                </mxCell>
                <mxCell id="233" value="ActivityManagerProxy" style="rounded=0;whiteSpace=wrap;html=1;fillColor=#0050ef;strokeColor=#001DBC;fontColor=#ffffff;" vertex="1" parent="249">
                    <mxGeometry x="45" y="330" width="150" height="30" as="geometry"/>
                </mxCell>
                <mxCell id="243" value="" style="endArrow=classic;html=1;strokeColor=#6666FF;strokeWidth=5;entryX=0.01;entryY=0.61;entryDx=0;entryDy=0;entryPerimeter=0;exitX=1;exitY=0.5;exitDx=0;exitDy=0;" edge="1" parent="249" source="215" target="220">
                    <mxGeometry width="50" height="50" relative="1" as="geometry">
                        <mxPoint x="300" y="330" as="sourcePoint"/>
                        <mxPoint x="350" y="280" as="targetPoint"/>
                    </mxGeometry>
                </mxCell>
                <mxCell id="246" value="Binder 方式" style="edgeLabel;html=1;align=center;verticalAlign=middle;resizable=0;points=[];" vertex="1" connectable="0" parent="243">
                    <mxGeometry x="-0.0917" y="6" relative="1" as="geometry">
                        <mxPoint as="offset"/>
                    </mxGeometry>
                </mxCell>
                <mxCell id="247" value="&lt;font color=&quot;#ff0000&quot;&gt;主线程&lt;/font&gt;" style="text;html=1;align=center;verticalAlign=middle;resizable=0;points=[];autosize=1;" vertex="1" parent="249">
                    <mxGeometry x="95" y="110" width="50" height="20" as="geometry"/>
                </mxCell>
                <mxCell id="248" value="ActivityThread" style="rounded=0;whiteSpace=wrap;html=1;fillColor=#0050ef;strokeColor=#001DBC;fontColor=#ffffff;" vertex="1" parent="249">
                    <mxGeometry x="55" y="130" width="140" height="30" as="geometry"/>
                </mxCell>
                <mxCell id="276" value="" style="group" vertex="1" connectable="0" parent="1">
                    <mxGeometry x="30" y="3750" width="710" height="440" as="geometry"/>
                </mxCell>
                <mxCell id="275" value="" style="group" vertex="1" connectable="0" parent="276">
                    <mxGeometry width="710" height="440" as="geometry"/>
                </mxCell>
                <mxCell id="252" value="AMS家族7.0" style="shape=umlFrame;whiteSpace=wrap;html=1;" vertex="1" parent="275">
                    <mxGeometry x="190" width="520" height="440" as="geometry"/>
                </mxCell>
                <mxCell id="253" value="«IInterface»&lt;br&gt;&lt;b&gt;asBinder()&lt;/b&gt;" style="html=1;" vertex="1" parent="275">
                    <mxGeometry x="270" y="20" width="110" height="50" as="geometry"/>
                </mxCell>
                <mxCell id="254" value="«IBinder»&lt;br&gt;&lt;b&gt;transact()&lt;/b&gt;" style="html=1;" vertex="1" parent="275">
                    <mxGeometry x="490" y="20" width="110" height="50" as="geometry"/>
                </mxCell>
                <mxCell id="255" value="IActivityManager" style="html=1;fillColor=#0050ef;strokeColor=#001DBC;fontColor=#ffffff;" vertex="1" parent="275">
                    <mxGeometry x="270" y="120" width="110" height="50" as="geometry"/>
                </mxCell>
                <mxCell id="261" value="ActivityManagerNative" style="html=1;fillColor=#0050ef;strokeColor=#001DBC;fontColor=#ffffff;" vertex="1" parent="275">
                    <mxGeometry x="510" y="250" width="145" height="50" as="geometry"/>
                </mxCell>
                <mxCell id="263" value="" style="edgeStyle=orthogonalEdgeStyle;rounded=0;orthogonalLoop=1;jettySize=auto;html=1;strokeColor=#FFFFFF;strokeWidth=2;endArrow=block;endFill=0;" edge="1" parent="275" source="262" target="261">
                    <mxGeometry relative="1" as="geometry">
                        <Array as="points">
                            <mxPoint x="588" y="320"/>
                            <mxPoint x="588" y="320"/>
                        </Array>
                    </mxGeometry>
                </mxCell>
                <mxCell id="262" value="ActivityManagerService" style="html=1;fillColor=#0050ef;strokeColor=#001DBC;fontColor=#ffffff;" vertex="1" parent="275">
                    <mxGeometry x="515" y="360" width="145" height="50" as="geometry"/>
                </mxCell>
                <mxCell id="264" value="" style="edgeStyle=orthogonalEdgeStyle;rounded=0;orthogonalLoop=1;jettySize=auto;html=1;strokeColor=#FFFFFF;strokeWidth=2;endArrow=block;endFill=0;entryX=0.665;entryY=1.115;entryDx=0;entryDy=0;entryPerimeter=0;" edge="1" parent="275" source="261" target="260">
                    <mxGeometry relative="1" as="geometry">
                        <mxPoint x="597.5000000000002" y="363" as="sourcePoint"/>
                        <mxPoint x="597.5000000000002" y="303" as="targetPoint"/>
                        <Array as="points">
                            <mxPoint x="566" y="220"/>
                            <mxPoint x="566" y="220"/>
                        </Array>
                    </mxGeometry>
                </mxCell>
                <mxCell id="265" value="" style="edgeStyle=orthogonalEdgeStyle;rounded=0;orthogonalLoop=1;jettySize=auto;html=1;strokeColor=#FFFFFF;strokeWidth=2;endArrow=block;endFill=0;exitX=0.67;exitY=-0.002;exitDx=0;exitDy=0;exitPerimeter=0;dashed=1;" edge="1" parent="275" source="257" target="254">
                    <mxGeometry relative="1" as="geometry">
                        <mxPoint x="576" y="260" as="sourcePoint"/>
                        <mxPoint x="576.4000000000001" y="198.98999999999978" as="targetPoint"/>
                        <Array as="points"/>
                    </mxGeometry>
                </mxCell>
                <mxCell id="257" value="Binder" style="swimlane;fontStyle=1;align=center;verticalAlign=top;childLayout=stackLayout;horizontal=1;startSize=26;horizontalStack=0;resizeParent=1;resizeParentMax=0;resizeLast=0;collapsible=1;marginBottom=0;" vertex="1" parent="275">
                    <mxGeometry x="460" y="110" width="160" height="86" as="geometry"/>
                </mxCell>
                <mxCell id="258" value="transact()" style="text;strokeColor=none;fillColor=none;align=left;verticalAlign=top;spacingLeft=4;spacingRight=4;overflow=hidden;rotatable=0;points=[[0,0.5],[1,0.5]];portConstraint=eastwest;" vertex="1" parent="257">
                    <mxGeometry y="26" width="160" height="26" as="geometry"/>
                </mxCell>
                <mxCell id="259" value="" style="line;strokeWidth=1;fillColor=none;align=left;verticalAlign=middle;spacingTop=-1;spacingLeft=3;spacingRight=3;rotatable=0;labelPosition=right;points=[];portConstraint=eastwest;" vertex="1" parent="257">
                    <mxGeometry y="52" width="160" height="8" as="geometry"/>
                </mxCell>
                <mxCell id="260" value="onTransact()" style="text;strokeColor=none;fillColor=none;align=left;verticalAlign=top;spacingLeft=4;spacingRight=4;overflow=hidden;rotatable=0;points=[[0,0.5],[1,0.5]];portConstraint=eastwest;" vertex="1" parent="257">
                    <mxGeometry y="60" width="160" height="26" as="geometry"/>
                </mxCell>
                <mxCell id="268" value="" style="endArrow=block;html=1;strokeColor=#FFFFFF;strokeWidth=2;endFill=0;" edge="1" parent="275" source="255" target="253">
                    <mxGeometry width="50" height="50" relative="1" as="geometry">
                        <mxPoint x="360" y="210" as="sourcePoint"/>
                        <mxPoint x="410" y="160" as="targetPoint"/>
                    </mxGeometry>
                </mxCell>
                <mxCell id="269" value="ActivityManagerProxy" style="html=1;fillColor=#0050ef;strokeColor=#001DBC;fontColor=#ffffff;" vertex="1" parent="275">
                    <mxGeometry x="220" y="240" width="140" height="50" as="geometry"/>
                </mxCell>
                <mxCell id="270" value="" style="edgeStyle=orthogonalEdgeStyle;rounded=0;orthogonalLoop=1;jettySize=auto;html=1;strokeColor=#FFFFFF;strokeWidth=2;endArrow=block;endFill=0;exitX=0.25;exitY=0;exitDx=0;exitDy=0;dashed=1;entryX=0.5;entryY=1;entryDx=0;entryDy=0;" edge="1" parent="275" source="269" target="255">
                    <mxGeometry relative="1" as="geometry">
                        <mxPoint x="577.2" y="119.82800000000043" as="sourcePoint"/>
                        <mxPoint x="555.0000000000002" y="80" as="targetPoint"/>
                        <Array as="points"/>
                    </mxGeometry>
                </mxCell>
                <mxCell id="271" value="" style="edgeStyle=orthogonalEdgeStyle;rounded=0;orthogonalLoop=1;jettySize=auto;html=1;strokeColor=#FFFFFF;strokeWidth=2;endArrow=block;endFill=0;dashed=1;entryX=0.5;entryY=1;entryDx=0;entryDy=0;" edge="1" parent="275" source="261">
                    <mxGeometry relative="1" as="geometry">
                        <mxPoint x="255" y="240" as="sourcePoint"/>
                        <mxPoint x="325" y="170" as="targetPoint"/>
                        <Array as="points">
                            <mxPoint x="400" y="275"/>
                            <mxPoint x="400" y="200"/>
                            <mxPoint x="325" y="200"/>
                        </Array>
                    </mxGeometry>
                </mxCell>
                <mxCell id="272" value="ActivityManager" style="html=1;fillColor=#0050ef;strokeColor=#001DBC;fontColor=#ffffff;" vertex="1" parent="275">
                    <mxGeometry y="220" width="140" height="50" as="geometry"/>
                </mxCell>
                <mxCell id="273" value="" style="endArrow=classic;html=1;strokeColor=#FFFFFF;strokeWidth=2;exitX=1;exitY=0.75;exitDx=0;exitDy=0;entryX=0;entryY=0.5;entryDx=0;entryDy=0;" edge="1" parent="275" source="272" target="269">
                    <mxGeometry width="50" height="50" relative="1" as="geometry">
                        <mxPoint x="360" y="210" as="sourcePoint"/>
                        <mxPoint x="410" y="160" as="targetPoint"/>
                    </mxGeometry>
                </mxCell>
                <mxCell id="274" value="ActivityManager通过AMN getDefault（）调用AMP" style="shape=note;whiteSpace=wrap;html=1;size=14;verticalAlign=top;align=left;spacingTop=-6;" vertex="1" parent="275">
                    <mxGeometry x="130" y="140" width="100" height="70" as="geometry"/>
                </mxCell>
                <mxCell id="284" value="" style="group" vertex="1" connectable="0" parent="1">
                    <mxGeometry x="40" y="4250" width="420" height="290" as="geometry"/>
                </mxCell>
                <mxCell id="277" value="&lt;font style=&quot;font-size: 35px&quot;&gt;Android进程模型与优先级&lt;/font&gt;" style="text;html=1;align=center;verticalAlign=middle;resizable=0;points=[];autosize=1;" vertex="1" parent="284">
                    <mxGeometry width="420" height="30" as="geometry"/>
                </mxCell>
                <mxCell id="278" value="前端进程" style="rounded=0;whiteSpace=wrap;html=1;fillColor=#0050ef;strokeColor=#001DBC;fontColor=#ffffff;" vertex="1" parent="284">
                    <mxGeometry x="40" y="50" width="200" height="40" as="geometry"/>
                </mxCell>
                <mxCell id="280" value="可见进程" style="rounded=0;whiteSpace=wrap;html=1;fillColor=#60a917;strokeColor=#2D7600;fontColor=#ffffff;" vertex="1" parent="284">
                    <mxGeometry x="40" y="100" width="200" height="40" as="geometry"/>
                </mxCell>
                <mxCell id="281" value="可见进程" style="rounded=0;whiteSpace=wrap;html=1;fillColor=#647687;strokeColor=#314354;fontColor=#ffffff;" vertex="1" parent="284">
                    <mxGeometry x="40" y="150" width="200" height="40" as="geometry"/>
                </mxCell>
                <mxCell id="282" value="服务进程" style="rounded=0;whiteSpace=wrap;html=1;fillColor=#f0a30a;strokeColor=#BD7000;fontColor=#ffffff;" vertex="1" parent="284">
                    <mxGeometry x="40" y="200" width="200" height="40" as="geometry"/>
                </mxCell>
                <mxCell id="283" value="空进程" style="rounded=0;whiteSpace=wrap;html=1;fillColor=#1ba1e2;strokeColor=#006EAF;fontColor=#ffffff;" vertex="1" parent="284">
                    <mxGeometry x="40" y="250" width="200" height="40" as="geometry"/>
                </mxCell>
                <mxCell id="290" value="" style="group" vertex="1" connectable="0" parent="1">
                    <mxGeometry x="530" y="4250" width="230" height="240" as="geometry"/>
                </mxCell>
                <mxCell id="285" value="AMS数据结构" style="text;html=1;align=center;verticalAlign=middle;resizable=0;points=[];autosize=1;" vertex="1" parent="290">
                    <mxGeometry x="70" width="90" height="20" as="geometry"/>
                </mxCell>
                <mxCell id="286" value="ActivityRecord" style="rounded=0;whiteSpace=wrap;html=1;fillColor=#0050ef;strokeColor=#001DBC;fontColor=#ffffff;" vertex="1" parent="290">
                    <mxGeometry y="40" width="120" height="40" as="geometry"/>
                </mxCell>
                <mxCell id="287" value="TaskRecord" style="rounded=0;whiteSpace=wrap;html=1;fillColor=#fa6800;strokeColor=#C73500;fontColor=#ffffff;" vertex="1" parent="290">
                    <mxGeometry x="110" y="90" width="120" height="35" as="geometry"/>
                </mxCell>
                <mxCell id="288" value="ActivityStack" style="rounded=0;whiteSpace=wrap;html=1;fillColor=#0050ef;strokeColor=#001DBC;fontColor=#ffffff;" vertex="1" parent="290">
                    <mxGeometry y="140" width="120" height="40" as="geometry"/>
                </mxCell>
                <mxCell id="289" value="ActivityState" style="rounded=0;whiteSpace=wrap;html=1;fillColor=#fa6800;strokeColor=#C73500;fontColor=#ffffff;" vertex="1" parent="290">
                    <mxGeometry x="100" y="200" width="120" height="40" as="geometry"/>
                </mxCell>
            </root>
        </mxGraphModel>
    </diagram>
</mxfile>